<svg fill="none" height="10" viewBox="0 0 12 10" width="12" xmlns="http://www.w3.org/2000/svg"><path clip-rule="evenodd" d="m0 9.5c0-.13261.0526785-.25979.146447-.35355.093768-.09377.220945-.14645.353553-.14645h7c.13261 0 .25979.05268.35355.14645.09377.09376.14645.22094.14645.35355s-.05268.25979-.14645.35355c-.09376.09377-.22094.14645-.35355.14645h-7c-.132608 0-.259785-.05268-.353553-.14645-.0937685-.09376-.146447-.22094-.146447-.35355zm0-3c0-.13261.0526785-.25979.146447-.35355.093768-.09377.220945-.14645.353553-.14645h11c.1326 0 .2598.05268.3536.14645.0937.09376.1464.22094.1464.35355s-.0527.25979-.1464.35355c-.0938.09377-.221.14645-.3536.14645h-11c-.132608 0-.259785-.05268-.353553-.14645-.0937685-.09376-.146447-.22094-.146447-.35355zm0-3c0-.13261.0526785-.25979.146447-.35355.093768-.09377.220945-.14645.353553-.14645h7c.13261 0 .25979.05268.35355.14645.09377.09376.14645.22094.14645.35355s-.05268.25979-.14645.35355c-.09376.09377-.22094.14645-.35355.14645h-7c-.132608 0-.259785-.05268-.353553-.14645-.0937685-.09376-.146447-.22094-.146447-.35355zm0-3c0-.132608.0526785-.259785.146447-.353553.093768-.0937685.220945-.146447.353553-.146447h11c.1326 0 .2598.0526785.3536.146447.0937.093768.1464.220945.1464.353553s-.0527.259785-.1464.353553c-.0938.093768-.221.146447-.3536.146447h-11c-.132608 0-.259785-.052679-.353553-.146447-.0937685-.093768-.146447-.220945-.146447-.353553z" fill="#000" fill-rule="evenodd"/></svg>